<?xml version="1.0" encoding="UTF-8"?> <svg xmlns="http://www.w3.org/2000/svg" viewBox="0 0 190.36 126.91"><defs><style>.cls-1{fill:#164188;}.cls-2{fill:#ffe100;}</style></defs><g id="Layer_2" data-name="Layer 2"><g id="Layer_3" data-name="Layer 3"><rect class="cls-1" width="190.36" height="126.91"></rect><polygon class="cls-2" points="91.12 27.65 95.14 24.72 99.16 27.65 97.63 22.91 101.71 19.98 96.68 19.98 95.14 15.18 93.6 19.98 88.58 19.98 92.65 22.91 91.12 27.65"></polygon><polygon class="cls-2" points="70.34 33.24 74.35 30.3 78.37 33.24 76.84 28.5 80.92 25.56 75.89 25.56 74.35 20.76 72.81 25.57 67.79 25.56 71.86 28.5 70.34 33.24"></polygon><polygon class="cls-2" points="59.14 36.01 57.6 40.81 52.58 40.81 56.66 43.74 55.13 48.48 59.14 45.55 63.16 48.48 61.63 43.74 65.71 40.81 60.68 40.81 59.14 36.01"></polygon><polygon class="cls-2" points="53.56 66.31 57.58 69.24 56.05 64.5 60.13 61.57 55.1 61.57 53.56 56.77 52.02 61.58 47 61.57 51.08 64.5 49.55 69.24 53.56 66.31"></polygon><polygon class="cls-2" points="60.68 82.39 59.14 77.59 57.6 82.4 52.58 82.39 56.66 85.32 55.13 90.06 59.14 87.13 63.16 90.06 61.63 85.32 65.71 82.39 60.68 82.39"></polygon><polygon class="cls-2" points="75.92 97.63 74.38 92.83 72.85 97.64 67.82 97.63 71.89 100.56 70.37 105.3 74.39 102.37 78.4 105.3 76.87 100.56 80.95 97.63 75.92 97.63"></polygon><polygon class="cls-2" points="96.68 103.15 95.14 98.35 93.61 103.16 88.58 103.15 92.66 106.08 91.13 110.83 95.15 107.89 99.16 110.83 97.63 106.08 101.71 103.15 96.68 103.15"></polygon><polygon class="cls-2" points="117.44 97.63 115.91 92.83 114.36 97.64 109.34 97.63 113.42 100.56 111.89 105.3 115.91 102.37 119.92 105.3 118.39 100.56 122.47 97.63 117.44 97.63"></polygon><polygon class="cls-2" points="132.69 82.39 131.15 77.59 129.6 82.4 124.58 82.39 128.66 85.32 127.13 90.06 131.15 87.13 135.16 90.06 133.63 85.32 137.71 82.39 132.69 82.39"></polygon><polygon class="cls-2" points="143.23 61.51 138.2 61.51 136.66 56.71 135.13 61.52 130.1 61.51 134.18 64.44 132.65 69.18 136.66 66.25 140.68 69.18 139.15 64.44 143.23 61.51"></polygon><polygon class="cls-2" points="127.13 48.42 131.15 45.49 135.16 48.42 133.63 43.68 137.71 40.75 132.69 40.75 131.15 35.95 129.6 40.76 124.58 40.75 128.66 43.68 127.13 48.42"></polygon><polygon class="cls-2" points="115.97 20.77 114.43 25.57 109.4 25.56 113.47 28.5 111.95 33.24 115.97 30.3 119.98 33.24 118.46 28.5 122.53 25.56 117.5 25.56 115.97 20.77"></polygon></g></g></svg> 