<svg width="120" height="17" viewBox="0 0 120 17" fill="none" xmlns="http://www.w3.org/2000/svg">
<path d="M0.30957 13V0.115234H4.48438C6.06641 0.115234 7.09766 0.179687 7.57812 0.308594C8.31641 0.501953 8.93457 0.923828 9.43262 1.57422C9.93066 2.21875 10.1797 3.05371 10.1797 4.0791C10.1797 4.87012 10.0361 5.53516 9.74902 6.07422C9.46191 6.61328 9.0957 7.03809 8.65039 7.34863C8.21094 7.65332 7.7627 7.85547 7.30566 7.95508C6.68457 8.07812 5.78516 8.13965 4.60742 8.13965H2.91113V13H0.30957ZM2.91113 2.29492V5.95117H4.33496C5.36035 5.95117 6.0459 5.88379 6.3916 5.74902C6.7373 5.61426 7.00684 5.40332 7.2002 5.11621C7.39941 4.8291 7.49902 4.49512 7.49902 4.11426C7.49902 3.64551 7.36133 3.25879 7.08594 2.9541C6.81055 2.64941 6.46191 2.45898 6.04004 2.38281C5.72949 2.32422 5.10547 2.29492 4.16797 2.29492H2.91113ZM14.6621 13H12.1924V3.66602H14.4863V4.99316C14.8789 4.36621 15.2305 3.95313 15.541 3.75391C15.8574 3.55469 16.2148 3.45508 16.6133 3.45508C17.1758 3.45508 17.7178 3.61035 18.2393 3.9209L17.4746 6.07422C17.0586 5.80469 16.6719 5.66992 16.3145 5.66992C15.9688 5.66992 15.6758 5.7666 15.4355 5.95996C15.1953 6.14746 15.0049 6.49023 14.8643 6.98828C14.7295 7.48633 14.6621 8.5293 14.6621 10.1172V13ZM19.3115 2.40039V0.115234H21.7812V2.40039H19.3115ZM19.3115 13V3.66602H21.7812V13H19.3115ZM26.8877 13L23.126 3.66602H25.7188L27.4766 8.42969L27.9863 10.0205C28.1211 9.61621 28.2061 9.34961 28.2412 9.2207C28.3232 8.95703 28.4111 8.69336 28.5049 8.42969L30.2803 3.66602H32.8203L29.1113 13H26.8877ZM36.1865 6.51367L33.9453 6.10938C34.1973 5.20703 34.6309 4.53906 35.2461 4.10547C35.8613 3.67188 36.7754 3.45508 37.9883 3.45508C39.0898 3.45508 39.9102 3.58691 40.4492 3.85059C40.9883 4.1084 41.3662 4.43945 41.583 4.84375C41.8057 5.24219 41.917 5.97754 41.917 7.0498L41.8906 9.93262C41.8906 10.7529 41.9287 11.3594 42.0049 11.752C42.0869 12.1387 42.2363 12.5547 42.4531 13H40.0098C39.9453 12.8359 39.8662 12.5928 39.7725 12.2705C39.7314 12.124 39.7021 12.0273 39.6846 11.9805C39.2627 12.3906 38.8115 12.6982 38.3311 12.9033C37.8506 13.1084 37.3379 13.2109 36.793 13.2109C35.832 13.2109 35.0732 12.9502 34.5166 12.4287C33.9658 11.9072 33.6904 11.248 33.6904 10.4512C33.6904 9.92383 33.8164 9.45508 34.0684 9.04492C34.3203 8.62891 34.6719 8.3125 35.123 8.0957C35.5801 7.87305 36.2363 7.67969 37.0918 7.51562C38.2461 7.29883 39.0459 7.09668 39.4912 6.90918V6.66309C39.4912 6.18848 39.374 5.85156 39.1396 5.65234C38.9053 5.44727 38.4629 5.34473 37.8125 5.34473C37.373 5.34473 37.0303 5.43262 36.7842 5.6084C36.5381 5.77832 36.3389 6.08008 36.1865 6.51367ZM39.4912 8.51758C39.1748 8.62305 38.6738 8.74902 37.9883 8.89551C37.3027 9.04199 36.8545 9.18555 36.6436 9.32617C36.3213 9.55469 36.1602 9.84473 36.1602 10.1963C36.1602 10.542 36.2891 10.8408 36.5469 11.0928C36.8047 11.3447 37.1328 11.4707 37.5312 11.4707C37.9766 11.4707 38.4014 11.3242 38.8057 11.0312C39.1045 10.8086 39.3008 10.5361 39.3945 10.2139C39.459 10.0029 39.4912 9.60156 39.4912 9.00977V8.51758ZM52.499 6.42578L50.0645 6.86523C49.9824 6.37891 49.7949 6.0127 49.502 5.7666C49.2148 5.52051 48.8398 5.39746 48.377 5.39746C47.7617 5.39746 47.2695 5.61133 46.9004 6.03906C46.5371 6.46094 46.3555 7.16992 46.3555 8.16602C46.3555 9.27344 46.54 10.0557 46.9092 10.5127C47.2842 10.9697 47.7852 11.1982 48.4121 11.1982C48.8809 11.1982 49.2646 11.0664 49.5635 10.8027C49.8623 10.5332 50.0732 10.0732 50.1963 9.42285L52.6221 9.83594C52.3701 10.9492 51.8867 11.79 51.1719 12.3584C50.457 12.9268 49.499 13.2109 48.2979 13.2109C46.9326 13.2109 45.8428 12.7803 45.0283 11.9189C44.2197 11.0576 43.8154 9.86523 43.8154 8.3418C43.8154 6.80078 44.2227 5.60254 45.0371 4.74707C45.8516 3.88574 46.9531 3.45508 48.3418 3.45508C49.4785 3.45508 50.3809 3.70117 51.0488 4.19336C51.7227 4.67969 52.2061 5.42383 52.499 6.42578ZM53.2109 3.66602H55.8389L58.0713 10.293L60.251 3.66602H62.8086L59.5127 12.6484L58.9238 14.2744C58.707 14.8193 58.499 15.2354 58.2998 15.5225C58.1064 15.8096 57.8809 16.041 57.623 16.2168C57.3711 16.3984 57.0576 16.5391 56.6826 16.6387C56.3135 16.7383 55.8945 16.7881 55.4258 16.7881C54.9512 16.7881 54.4854 16.7383 54.0283 16.6387L53.8086 14.7051C54.1953 14.7812 54.5439 14.8193 54.8545 14.8193C55.4287 14.8193 55.8535 14.6494 56.1289 14.3096C56.4043 13.9756 56.6152 13.5479 56.7617 13.0264L53.2109 3.66602ZM69.3389 3.66602H71.6416V5.03711C71.9404 4.56836 72.3447 4.1875 72.8545 3.89453C73.3643 3.60156 73.9297 3.45508 74.5508 3.45508C75.6348 3.45508 76.5547 3.87988 77.3105 4.72949C78.0664 5.5791 78.4443 6.7627 78.4443 8.28027C78.4443 9.83887 78.0635 11.0518 77.3018 11.9189C76.54 12.7803 75.6172 13.2109 74.5332 13.2109C74.0176 13.2109 73.5488 13.1084 73.127 12.9033C72.7109 12.6982 72.2715 12.3467 71.8086 11.8486V16.5508H69.3389V3.66602ZM71.7822 8.1748C71.7822 9.22363 71.9902 10 72.4062 10.5039C72.8223 11.002 73.3291 11.251 73.9268 11.251C74.501 11.251 74.9785 11.0225 75.3594 10.5654C75.7402 10.1025 75.9307 9.34668 75.9307 8.29785C75.9307 7.31934 75.7344 6.59277 75.3418 6.11816C74.9492 5.64355 74.4629 5.40625 73.8828 5.40625C73.2793 5.40625 72.7783 5.64062 72.3799 6.10938C71.9814 6.57227 71.7822 7.26074 71.7822 8.1748ZM79.8418 8.20117C79.8418 7.38086 80.0439 6.58691 80.4482 5.81934C80.8525 5.05176 81.4238 4.46582 82.1621 4.06152C82.9062 3.65723 83.7354 3.45508 84.6494 3.45508C86.0615 3.45508 87.2188 3.91504 88.1211 4.83496C89.0234 5.74902 89.4746 6.90625 89.4746 8.30664C89.4746 9.71875 89.0176 10.8906 88.1035 11.8223C87.1953 12.748 86.0498 13.2109 84.667 13.2109C83.8115 13.2109 82.9941 13.0176 82.2148 12.6309C81.4414 12.2441 80.8525 11.6787 80.4482 10.9346C80.0439 10.1846 79.8418 9.27344 79.8418 8.20117ZM82.373 8.33301C82.373 9.25879 82.5928 9.96777 83.0322 10.46C83.4717 10.9521 84.0137 11.1982 84.6582 11.1982C85.3027 11.1982 85.8418 10.9521 86.2754 10.46C86.7148 9.96777 86.9346 9.25293 86.9346 8.31543C86.9346 7.40137 86.7148 6.69824 86.2754 6.20605C85.8418 5.71387 85.3027 5.46777 84.6582 5.46777C84.0137 5.46777 83.4717 5.71387 83.0322 6.20605C82.5928 6.69824 82.373 7.40723 82.373 8.33301ZM91.417 13V0.115234H93.8867V13H91.417ZM96.4268 2.40039V0.115234H98.8965V2.40039H96.4268ZM96.4268 13V3.66602H98.8965V13H96.4268ZM109.575 6.42578L107.141 6.86523C107.059 6.37891 106.871 6.0127 106.578 5.7666C106.291 5.52051 105.916 5.39746 105.453 5.39746C104.838 5.39746 104.346 5.61133 103.977 6.03906C103.613 6.46094 103.432 7.16992 103.432 8.16602C103.432 9.27344 103.616 10.0557 103.985 10.5127C104.36 10.9697 104.861 11.1982 105.488 11.1982C105.957 11.1982 106.341 11.0664 106.64 10.8027C106.938 10.5332 107.149 10.0732 107.272 9.42285L109.698 9.83594C109.446 10.9492 108.963 11.79 108.248 12.3584C107.533 12.9268 106.575 13.2109 105.374 13.2109C104.009 13.2109 102.919 12.7803 102.104 11.9189C101.296 11.0576 100.892 9.86523 100.892 8.3418C100.892 6.80078 101.299 5.60254 102.113 4.74707C102.928 3.88574 104.029 3.45508 105.418 3.45508C106.555 3.45508 107.457 3.70117 108.125 4.19336C108.799 4.67969 109.282 5.42383 109.575 6.42578ZM110.287 3.66602H112.915L115.147 10.293L117.327 3.66602H119.885L116.589 12.6484L116 14.2744C115.783 14.8193 115.575 15.2354 115.376 15.5225C115.183 15.8096 114.957 16.041 114.699 16.2168C114.447 16.3984 114.134 16.5391 113.759 16.6387C113.39 16.7383 112.971 16.7881 112.502 16.7881C112.027 16.7881 111.562 16.7383 111.104 16.6387L110.885 14.7051C111.271 14.7812 111.62 14.8193 111.931 14.8193C112.505 14.8193 112.93 14.6494 113.205 14.3096C113.48 13.9756 113.691 13.5479 113.838 13.0264L110.287 3.66602Z" fill="black"/>
</svg>
